<svg width="145" height="25" viewBox="0 0 145 25" fill="none" xmlns="http://www.w3.org/2000/svg">
<path d="M10.1032 6.86193C10.8112 4.69507 13.8792 4.69507 14.5872 6.86193V6.86193C14.903 7.82828 15.8089 8.48299 16.8255 8.48299V8.48299C19.0981 8.48299 20.0577 11.3936 18.2157 12.7245V12.7245C17.3901 13.321 17.0447 14.3833 17.3611 15.3515V15.3515C18.0668 17.5116 15.5744 19.2991 13.7324 17.9682V17.9682C12.9077 17.3724 11.7827 17.3724 10.958 17.9682V17.9682C9.11603 19.2991 6.62358 17.5116 7.32936 15.3515V15.3515C7.64571 14.3833 7.30035 13.321 6.47472 12.7245V12.7245C4.63269 11.3936 5.59236 8.48299 7.86488 8.48299V8.48299C8.8815 8.48299 9.78745 7.82828 10.1032 6.86193V6.86193Z" fill="#293D38"/>
<path d="M40.1804 6.86193C40.8884 4.69507 43.9565 4.69507 44.6645 6.86193V6.86193C44.9802 7.82828 45.8862 8.48299 46.9028 8.48299V8.48299C49.1753 8.48299 50.135 11.3936 48.293 12.7245V12.7245C47.4673 13.321 47.122 14.3833 47.4383 15.3515V15.3515C48.1441 17.5116 45.6516 19.2991 43.8096 17.9682V17.9682C42.985 17.3724 41.86 17.3724 41.0353 17.9682V17.9682C39.1933 19.2991 36.7008 17.5116 37.4066 15.3515V15.3515C37.723 14.3833 37.3776 13.321 36.552 12.7245V12.7245C34.7099 11.3936 35.6696 8.48299 37.9421 8.48299V8.48299C38.9588 8.48299 39.8647 7.82828 40.1804 6.86193V6.86193Z" fill="#293D38"/>
<path d="M70.258 6.86193C70.966 4.69507 74.034 4.69507 74.742 6.86193V6.86193C75.0578 7.82828 75.9637 8.48299 76.9803 8.48299V8.48299C79.2528 8.48299 80.2125 11.3936 78.3705 12.7245V12.7245C77.5449 13.321 77.1995 14.3833 77.5158 15.3515V15.3515C78.2216 17.5116 75.7292 19.2991 73.8872 17.9682V17.9682C73.0625 17.3724 71.9375 17.3724 71.1128 17.9682V17.9682C69.2708 19.2991 66.7784 17.5116 67.4842 15.3515V15.3515C67.8005 14.3833 67.4551 13.321 66.6295 12.7245V12.7245C64.7875 11.3936 65.7472 8.48299 68.0197 8.48299V8.48299C69.0363 8.48299 69.9422 7.82828 70.258 6.86193V6.86193Z" fill="#293D38"/>
<path d="M100.336 6.86193C101.044 4.69507 104.112 4.69507 104.82 6.86193V6.86193C105.135 7.82828 106.041 8.48299 107.058 8.48299V8.48299C109.33 8.48299 110.29 11.3936 108.448 12.7245V12.7245C107.622 13.321 107.277 14.3833 107.593 15.3515V15.3515C108.299 17.5116 105.807 19.2991 103.965 17.9682V17.9682C103.14 17.3724 102.015 17.3724 101.19 17.9682V17.9682C99.3484 19.2991 96.8559 17.5116 97.5617 15.3515V15.3515C97.878 14.3833 97.5327 13.321 96.707 12.7245V12.7245C94.865 11.3936 95.8247 8.48299 98.0972 8.48299V8.48299C99.1138 8.48299 100.02 7.82828 100.336 6.86193V6.86193Z" fill="#293D38"/>
<path d="M128.174 9.42976C129.407 9.42976 130.505 8.63674 130.888 7.464C131.446 5.75675 133.864 5.75675 134.422 7.464C134.805 8.63674 135.903 9.42976 137.135 9.42976C138.933 9.42976 139.673 11.725 138.232 12.766C137.23 13.4899 136.812 14.7789 137.195 15.9536C137.746 17.6397 135.796 19.0656 134.335 18.0097C133.335 17.2876 131.974 17.2876 130.975 18.0097C129.513 19.0656 127.563 17.6397 128.114 15.9536C128.498 14.7789 128.079 13.4899 127.077 12.766C125.636 11.725 126.377 9.42976 128.174 9.42976Z" stroke="#293D38"/>
</svg>
