<svg width="20" height="16" viewBox="0 0 20 16" fill="none" xmlns="http://www.w3.org/2000/svg">
<path fill-rule="evenodd" clip-rule="evenodd" d="M0 2.98557L7.40544e-05 2.9809C0.0103054 1.33738 1.34213 0.00733884 2.98634 0H17.0137C18.6579 0.00733883 19.9897 1.33737 20 2.98089L20 2.98349V13.0096C19.9948 14.662 18.6536 16 17 16H3.00001C1.34316 16 1.47071e-05 14.6568 1.47071e-05 13V3.0137L0 3.01265V2.98557ZM3.00001 1.99997C2.61376 1.99997 2.27865 2.21896 2.11208 2.53956L10 7.79818L17.888 2.53956C17.7214 2.21896 17.3863 1.99997 17 1.99997H3.00001ZM18 13V4.86855L10.5547 9.83208C10.2188 10.056 9.78121 10.056 9.44531 9.83208L2.00001 4.86855V13C2.00001 13.5523 2.44773 14 3.00001 14H17C17.5523 14 18 13.5523 18 13Z" fill="#39260A"/>
</svg>
