<svg width="18" height="20" viewBox="0 0 18 20" fill="none" xmlns="http://www.w3.org/2000/svg">
<path fill-rule="evenodd" clip-rule="evenodd" d="M15.3641 15.3638C16.6228 14.1051 17.4799 12.5014 17.8271 10.7556C17.9419 10.1785 17.9993 9.59435 18 9.01153C18 9.00386 18 8.99619 18 8.98852C17.9985 7.81611 17.7679 6.64941 17.3149 5.55571C16.6337 3.9112 15.4801 2.50562 14.0001 1.51671C12.5266 0.53214 10.7953 0.00461317 9.02345 0H8.97656C7.20472 0.00461317 5.47345 0.53214 3.99992 1.51671C2.51989 2.50562 1.36634 3.9112 0.685133 5.55571C0.23061 6.65299 0 7.82375 0 9.00003C0 9.58666 0.0573573 10.1747 0.172903 10.7556C0.520132 12.5014 1.37725 14.1051 2.63588 15.3638L6.87998 19.6069C7.02874 19.7555 7.19176 19.8871 7.3654 20H10.6356C10.8092 19.8871 10.972 19.7557 11.1208 19.6071L15.3641 15.3638ZM9 1.99997C7.61555 1.99997 6.26219 2.4105 5.11105 3.17966C3.95991 3.94881 3.06271 5.04204 2.53288 6.3211C2.00306 7.60016 1.86441 9.00761 2.13448 10.3655C2.40454 11.7233 3.07115 12.9705 4.05003 13.9495L5.38791 10.7198C5.13922 10.1986 5 9.61518 5 8.99924C5 7.25909 6.11119 5.77847 7.66272 5.22824L9 1.99997ZM9 1.99997L7.66272 5.22824C8.08086 5.07996 8.53103 4.99924 9 4.99924C11.2091 4.99924 13 6.7901 13 8.99924C13 11.2084 11.2091 12.9992 9 12.9992C7.40685 12.9992 6.03118 12.0677 5.38791 10.7198L4.05003 13.9495L8.29375 18.1922C8.48124 18.3794 8.73559 18.4847 9.0005 18.4847C9.26554 18.4847 9.51975 18.3795 9.70725 18.1922L13.9499 13.9496C14.9288 12.9706 15.5955 11.7233 15.8655 10.3655C16.1356 9.00761 15.997 7.60016 15.4671 6.3211C14.9373 5.04204 14.0401 3.94881 12.889 3.17966C11.7378 2.4105 10.3845 1.99997 9 1.99997ZM9 6.99924C7.89543 6.99924 7 7.89467 7 8.99924C7 10.1038 7.89543 10.9992 9 10.9992C10.1046 10.9992 11 10.1038 11 8.99924C11 7.89467 10.1046 6.99924 9 6.99924Z" fill="#39260A"/>
</svg>
