<svg width="25" height="20" viewBox="0 0 25 20" fill="none" xmlns="http://www.w3.org/2000/svg">
<path fill-rule="evenodd" clip-rule="evenodd" d="M18.3864 19.7791C18.7084 20.0071 19.1234 20.0641 19.4934 19.9241C19.8634 19.7831 20.1354 19.4671 20.2174 19.0841C21.0864 15.0001 23.1944 4.66315 23.9854 0.948148C24.0454 0.668148 23.9454 0.377148 23.7254 0.190148C23.5054 0.00314829 23.2004 -0.0508518 22.9284 0.0501482C18.7354 1.60215 5.82235 6.44715 0.544351 8.40015C0.209351 8.52415 -0.00864902 8.84615 0.00235098 9.19915C0.014351 9.55315 0.252351 9.86015 0.595351 9.96315C2.96235 10.6711 6.06935 11.6561 6.06935 11.6561C6.06935 11.6561 7.52135 16.0411 8.27835 18.2711C8.37335 18.5511 8.59235 18.7711 8.88135 18.8471C9.16935 18.9221 9.47735 18.8431 9.69235 18.6401C10.9083 17.4921 12.7884 15.7171 12.7884 15.7171C12.7884 15.7171 16.3604 18.3361 18.3864 19.7791ZM7.37635 11.1021L9.05535 16.6401L9.42835 13.1331C9.42835 13.1331 15.9154 7.28215 19.6134 3.94715C19.7214 3.84915 19.7364 3.68515 19.6464 3.57015C19.5574 3.45515 19.3934 3.42815 19.2704 3.50615C14.9844 6.24315 7.37635 11.1021 7.37635 11.1021Z" fill="#39260A"/>
</svg>
