<svg width="25" height="14" viewBox="0 0 25 14" fill="none" xmlns="http://www.w3.org/2000/svg">
<path d="M13.162 13.9938C13.771 13.9938 14.02 13.5878 14.013 13.0788C13.982 11.1618 14.727 10.1298 16.072 11.4748C17.56 12.9628 17.868 13.9938 19.675 13.9938H22.875C23.683 13.9938 24.001 13.7338 24.001 13.3258C24.001 12.4628 22.58 10.9398 21.376 9.82176C19.69 8.25676 19.611 8.21976 21.063 6.33576C22.864 3.99676 25.22 0.999756 23.136 0.999756H19.155C18.383 0.999756 18.327 1.43476 18.052 2.08276C17.057 4.42976 15.166 7.46976 14.448 7.00476C13.697 6.51976 14.041 4.59876 14.098 1.74376C14.113 0.989756 14.109 0.472756 12.957 0.204756C12.328 0.0597558 11.716 -0.000244141 11.148 -0.000244141C8.875 -0.000244141 7.307 0.952756 8.198 1.11876C9.769 1.41176 9.618 4.81076 9.252 6.27876C8.614 8.83476 6.216 4.25476 5.217 1.97376C4.976 1.42576 4.902 0.999756 4.042 0.999756H0.787C0.295 0.999756 0 1.15976 0 1.51576C0 2.11776 2.96 8.23575 5.786 11.2858C8.542 14.2608 11.266 13.9938 13.162 13.9938Z" fill="#39260A"/>
</svg>
