<svg width="21" height="24" viewBox="0 0 21 24" fill="none" xmlns="http://www.w3.org/2000/svg">
<path d="M2.65395 0H4.09395L5.08195 3.702L5.99795 0H7.45195L5.78695 5.505V9.262H4.35595V5.505L2.65395 0V0ZM9.24795 2.373C8.12895 2.373 7.38695 3.113 7.38695 4.208V7.557C7.38695 8.761 8.01595 9.388 9.24795 9.388C10.27 9.388 11.074 8.705 11.074 7.557V4.208C11.074 3.139 10.277 2.373 9.24795 2.373ZM9.77895 7.5C9.77895 7.872 9.58895 8.146 9.24695 8.146C8.89595 8.146 8.69295 7.859 8.69295 7.5V4.321C8.69295 3.947 8.86495 3.67 9.22195 3.67C9.61195 3.67 9.77895 3.939 9.77895 4.321V7.5ZM14.508 2.43V7.616C14.353 7.81 14.008 8.128 13.761 8.128C13.49 8.128 13.423 7.942 13.423 7.668V2.43H12.153V8.14C12.153 8.815 12.359 9.36 13.04 9.36C13.424 9.36 13.958 9.16 14.508 8.507V9.261H15.778V2.43H14.508ZM16.711 16.288C16.263 16.288 16.17 16.603 16.17 17.051V17.71H17.239V17.05C17.24 16.61 17.147 16.288 16.711 16.288ZM12.008 16.328C11.924 16.371 11.841 16.437 11.758 16.526V20.581C11.857 20.687 11.952 20.763 12.045 20.81C12.242 20.91 12.53 20.917 12.664 20.743C12.734 20.651 12.769 20.502 12.769 20.294V16.935C12.769 16.715 12.726 16.549 12.64 16.435C12.493 16.242 12.22 16.221 12.008 16.328ZM16.835 11.133C14.231 10.956 5.76895 10.956 3.16895 11.133C0.354953 11.325 0.0229531 13.025 0.00195312 17.5C0.0229531 21.967 0.351953 23.675 3.16895 23.867C5.76895 24.044 14.231 24.044 16.835 23.867C19.649 23.675 19.981 21.974 20.002 17.5C19.981 13.033 19.652 11.325 16.835 11.133ZM4.51095 21.819H3.14795V14.279H1.73795V12.999H5.91995V14.279H4.50995V21.819H4.51095ZM9.35695 21.819H8.14695V21.101C7.92395 21.366 7.69195 21.568 7.45095 21.706C6.79895 22.08 5.90395 22.071 5.90395 20.751V15.313H7.11295V20.301C7.11295 20.563 7.17595 20.739 7.43495 20.739C7.67095 20.739 7.99895 20.436 8.14595 20.252V15.313H9.35595V21.819H9.35695ZM14.014 20.471C14.014 21.276 13.713 21.902 12.908 21.902C12.465 21.902 12.096 21.74 11.759 21.319V21.819H10.538V12.999H11.759V15.839C12.032 15.506 12.403 15.231 12.835 15.231C13.721 15.231 14.015 15.98 14.015 16.862V20.471H14.014ZM18.485 18.719H16.171V19.947C16.171 20.435 16.213 20.857 16.699 20.857C17.21 20.857 17.24 20.513 17.24 19.947V19.495H18.485V19.984C18.485 21.237 17.947 21.997 16.672 21.997C15.517 21.997 14.926 21.155 14.926 19.984V17.063C14.926 15.934 15.672 15.149 16.763 15.149C17.924 15.149 18.484 15.887 18.484 17.063V18.719H18.485Z" fill="#39260A"/>
</svg>
