<svg width="317" height="56" viewBox="0 0 317 56" fill="none" xmlns="http://www.w3.org/2000/svg">
<path d="M24.6468 8.78115C25.5449 6.01722 29.4551 6.01722 30.3532 8.78115L33.0006 16.9291C33.4022 18.1652 34.5541 19.002 35.8538 19.002H44.421C47.3272 19.002 48.5355 22.7209 46.1844 24.4291L39.2533 29.4648C38.2019 30.2287 37.7619 31.5828 38.1635 32.8189L40.8109 40.9668C41.709 43.7307 38.5455 46.0291 36.1944 44.3209L29.2634 39.2852C28.2119 38.5213 26.7881 38.5213 25.7366 39.2852L18.8056 44.3209C16.4545 46.0291 13.291 43.7307 14.1891 40.9668L16.8365 32.8189C17.2381 31.5828 16.7981 30.2287 15.7467 29.4648L8.81564 24.4291C6.4645 22.7209 7.67283 19.002 10.579 19.002H19.1462C20.4459 19.002 21.5978 18.1652 21.9994 16.9291L24.6468 8.78115Z" stroke="#293D38"/>
<path d="M91.6468 8.78115C92.5449 6.01722 96.4551 6.01722 97.3532 8.78115L100.001 16.9291C100.402 18.1652 101.554 19.002 102.854 19.002H111.421C114.327 19.002 115.535 22.7209 113.184 24.4291L106.253 29.4648C105.202 30.2287 104.762 31.5828 105.164 32.8189L107.811 40.9668C108.709 43.7307 105.546 46.0291 103.194 44.3209L96.2634 39.2852C95.2119 38.5213 93.7881 38.5213 92.7366 39.2852L85.8056 44.3209C83.4545 46.0291 80.291 43.7307 81.1891 40.9668L83.8365 32.8189C84.2381 31.5828 83.7981 30.2287 82.7467 29.4648L75.8156 24.4291C73.4645 22.7209 74.6728 19.002 77.579 19.002H86.1462C87.4459 19.002 88.5978 18.1652 88.9994 16.9291L91.6468 8.78115Z" stroke="#293D38"/>
<path d="M158.647 8.78115C159.545 6.01722 163.455 6.01722 164.353 8.78115L167.001 16.9291C167.402 18.1652 168.554 19.002 169.854 19.002H178.421C181.327 19.002 182.535 22.7209 180.184 24.4291L173.253 29.4648C172.202 30.2287 171.762 31.5828 172.164 32.8189L174.811 40.9668C175.709 43.7307 172.546 46.0291 170.194 44.3209L163.263 39.2852C162.212 38.5213 160.788 38.5213 159.737 39.2852L152.806 44.3209C150.454 46.0291 147.291 43.7307 148.189 40.9668L150.836 32.8189C151.238 31.5828 150.798 30.2287 149.747 29.4648L142.816 24.4291C140.464 22.7209 141.673 19.002 144.579 19.002H153.146C154.446 19.002 155.598 18.1652 155.999 16.9291L158.647 8.78115Z" stroke="#293D38"/>
<path d="M225.647 8.78115C226.545 6.01722 230.455 6.01722 231.353 8.78115L234.001 16.9291C234.402 18.1652 235.554 19.002 236.854 19.002H245.421C248.327 19.002 249.535 22.7209 247.184 24.4291L240.253 29.4648C239.202 30.2287 238.762 31.5828 239.164 32.8189L241.811 40.9668C242.709 43.7307 239.546 46.0291 237.194 44.3209L230.263 39.2852C229.212 38.5213 227.788 38.5213 226.737 39.2852L219.806 44.3209C217.454 46.0291 214.291 43.7307 215.189 40.9668L217.836 32.8189C218.238 31.5828 217.798 30.2287 216.747 29.4648L209.816 24.4291C207.464 22.7209 208.673 19.002 211.579 19.002H220.146C221.446 19.002 222.598 18.1652 222.999 16.9291L225.647 8.78115Z" stroke="#293D38"/>
<path d="M293.122 9.93566C293.871 7.63239 297.129 7.63239 297.878 9.93566L300.525 18.0836C300.994 19.5257 302.337 20.502 303.854 20.502H312.421C314.843 20.502 315.85 23.6011 313.89 25.0246L306.959 30.0603C305.733 30.9515 305.219 32.5313 305.688 33.9734L308.335 42.1213C309.084 44.4246 306.448 46.3399 304.488 44.9164L297.557 39.8807C296.331 38.9895 294.669 38.9895 293.443 39.8807L286.512 44.9164C284.552 46.3399 281.916 44.4246 282.665 42.1213L285.312 33.9734C285.781 32.5313 285.267 30.9515 284.041 30.0603L277.11 25.0246C275.15 23.6011 276.157 20.502 278.579 20.502H287.146C288.663 20.502 290.006 19.5257 290.475 18.0836L293.122 9.93566Z" stroke="#293D38"/>
</svg>
